<svg width="32" height="32" viewBox="0 0 32 32" fill="none" xmlns="http://www.w3.org/2000/svg">
<g clip-path="url(#clip0_207_11)">
<path d="M16 3.09376C20.2062 3.09376 20.7 3.11251 22.3625 3.18751C23.9 3.25626 24.7312 3.51251 25.2875 3.73126C26.025 4.01876 26.55 4.35626 27.1 4.90626C27.65 5.45626 27.9937 5.98126 28.275 6.71876C28.4875 7.27501 28.75 8.10626 28.8187 9.64376C28.8937 11.3063 28.9125 11.8 28.9125 16.0063C28.9125 20.2125 28.8937 20.7063 28.8187 22.3688C28.75 23.9063 28.4937 24.7375 28.275 25.2938C27.9875 26.0313 27.65 26.5563 27.1 27.1063C26.55 27.6563 26.025 28 25.2875 28.2813C24.7312 28.4938 23.9 28.7563 22.3625 28.825C20.7 28.9 20.2062 28.9188 16 28.9188C11.7937 28.9188 11.3 28.9 9.63748 28.825C8.09997 28.7563 7.26873 28.5 6.71248 28.2813C5.97498 27.9938 5.44998 27.6563 4.89998 27.1063C4.34998 26.5563 4.00623 26.0313 3.72498 25.2938C3.51248 24.7375 3.24998 23.9063 3.18123 22.3688C3.10623 20.7063 3.08748 20.2125 3.08748 16.0063C3.08748 11.8 3.10623 11.3063 3.18123 9.64376C3.24998 8.10626 3.50623 7.27501 3.72498 6.71876C4.01248 5.98126 4.34998 5.45626 4.89998 4.90626C5.44998 4.35626 5.97498 4.01251 6.71248 3.73126C7.26873 3.51876 8.09997 3.25626 9.63748 3.18751C11.3 3.10626 11.7937 3.09376 16 3.09376ZM16 0.256256C11.725 0.256256 11.1875 0.275006 9.50623 0.350006C7.83123 0.425006 6.68748 0.693756 5.68748 1.08126C4.64998 1.48126 3.77498 2.02501 2.89998 2.90001C2.02498 3.77501 1.48748 4.65626 1.08123 5.68751C0.693726 6.68751 0.424976 7.83126 0.349976 9.51251C0.274976 11.1875 0.256226 11.725 0.256226 16C0.256226 20.275 0.274976 20.8125 0.349976 22.4938C0.424976 24.1688 0.693726 25.3125 1.08123 26.3188C1.48123 27.3563 2.02498 28.2313 2.89998 29.1063C3.77498 29.9813 4.65623 30.5188 5.68748 30.925C6.68748 31.3125 7.83123 31.5813 9.51248 31.6563C11.1937 31.7313 11.725 31.75 16.0062 31.75C20.2875 31.75 20.8187 31.7313 22.5 31.6563C24.175 31.5813 25.3187 31.3125 26.325 30.925C27.3625 30.525 28.2375 29.9813 29.1125 29.1063C29.9875 28.2313 30.525 27.35 30.9312 26.3188C31.3187 25.3188 31.5875 24.175 31.6625 22.4938C31.7375 20.8125 31.7562 20.2813 31.7562 16C31.7562 11.7188 31.7375 11.1875 31.6625 9.50626C31.5875 7.83126 31.3187 6.68751 30.9312 5.68126C30.5312 4.64376 29.9875 3.76876 29.1125 2.89376C28.2375 2.01876 27.3562 1.48126 26.325 1.07501C25.325 0.687506 24.1812 0.418756 22.5 0.343756C20.8125 0.275006 20.275 0.256256 16 0.256256Z" fill="white"/>
<path d="M16 7.91251C11.5375 7.91251 7.91248 11.5313 7.91248 16C7.91248 20.4688 11.5375 24.0875 16 24.0875C20.4625 24.0875 24.0875 20.4625 24.0875 16C24.0875 11.5375 20.4625 7.91251 16 7.91251ZM16 21.25C13.1 21.25 10.75 18.9 10.75 16C10.75 13.1 13.1 10.75 16 10.75C18.9 10.75 21.25 13.1 21.25 16C21.25 18.9 18.9 21.25 16 21.25Z" fill="white"/>
<path d="M24.4062 9.48127C25.4486 9.48127 26.2937 8.63621 26.2937 7.59377C26.2937 6.55133 25.4486 5.70627 24.4062 5.70627C23.3637 5.70627 22.5187 6.55133 22.5187 7.59377C22.5187 8.63621 23.3637 9.48127 24.4062 9.48127Z" fill="white"/>
</g>
<defs>
<clipPath id="clip0_207_11">
<rect width="32" height="32" fill="white"/>
</clipPath>
</defs>
</svg>
